<svg id="visual" viewBox="0 0 900 600" width="900" height="600" xmlns="http://www.w3.org/2000/svg" xmlns:xlink="http://www.w3.org/1999/xlink" version="1.1"><rect x="0" y="0" width="900" height="600" fill="#715DF2"></rect><path d="M0 362L129 353L257 358L386 351L514 339L643 332L771 394L900 366L900 601L771 601L643 601L514 601L386 601L257 601L129 601L0 601Z" fill="#0ab5f5"></path><path d="M0 362L129 405L257 360L386 365L514 404L643 359L771 419L900 381L900 601L771 601L643 601L514 601L386 601L257 601L129 601L0 601Z" fill="#00a2ee"></path><path d="M0 393L129 384L257 448L386 387L514 390L643 404L771 408L900 400L900 601L771 601L643 601L514 601L386 601L257 601L129 601L0 601Z" fill="#008ee5"></path><path d="M0 413L129 457L257 417L386 436L514 465L643 428L771 425L900 424L900 601L771 601L643 601L514 601L386 601L257 601L129 601L0 601Z" fill="#007ada"></path><path d="M0 450L129 481L257 456L386 459L514 443L643 469L771 462L900 473L900 601L771 601L643 601L514 601L386 601L257 601L129 601L0 601Z" fill="#0065cc"></path><path d="M0 479L129 474L257 512L386 490L514 511L643 508L771 500L900 511L900 601L771 601L643 601L514 601L386 601L257 601L129 601L0 601Z" fill="#0050bd"></path><path d="M0 514L129 535L257 537L386 516L514 496L643 502L771 523L900 540L900 601L771 601L643 601L514 601L386 601L257 601L129 601L0 601Z" fill="#003aac"></path><path d="M0 542L129 549L257 529L386 554L514 547L643 540L771 523L900 561L900 601L771 601L643 601L514 601L386 601L257 601L129 601L0 601Z" fill="#00229a"></path><path d="M0 567L129 577L257 573L386 578L514 554L643 563L771 573L900 557L900 601L771 601L643 601L514 601L386 601L257 601L129 601L0 601Z" fill="#080087"></path></svg>